<svg version="1.2" xmlns="http://www.w3.org/2000/svg" viewBox="0 0 88 28" width="88" height="28">
	<style>
		.s0 { fill: #ffffff;stroke: #000000;stroke-width: .7 } 
		.s1 { fill: #000000 } 
	</style>
	<path class="s0" d="m0.34 0.33h77.58c5.38 0 9.74 4.33 9.74 9.67v17.67h-77.58c-5.38 0-9.74-4.33-9.74-9.67z"/>
	<path class="s1" d="m12.07 16.1c2.32 1.88 5.65 1.88 7.98 0l-0.9-1.1c-1.8 1.45-4.38 1.45-6.18 0z"/>
	<path fill-rule="evenodd" class="s1" d="m14.47 11.76v1.92h-1.44v-1.92z"/>
	<path fill-rule="evenodd" class="s1" d="m18.9 11.76v1.92h-1.43v-1.92z"/>
	<path fill-rule="evenodd" class="s1" d="m15.79 22c-4.28 0-7.73-3.43-7.73-7.67 0-4.24 3.45-7.66 7.73-7.66 4.27 0 7.72 3.42 7.72 7.66 0 4.24-3.45 7.67-7.72 7.67zm6.29-7.67c0-3.45-2.81-6.24-6.29-6.24-3.48 0-6.3 2.79-6.3 6.24 0 3.46 2.82 6.25 6.3 6.25 3.48 0 6.29-2.79 6.29-6.25z"/>
	<path class="s1" d="m28.87 6.6l0.68 2.64 0.7-2.64h0.67l0.7 2.63 0.73-2.63h0.6l-1.04 3.36h-0.62l-0.72-2.6-0.71 2.6h-0.62l-1.03-3.36z"/>
	<path class="s1" d="m33.46 6.6h0.57v0.58q0.07-0.17 0.35-0.41 0.27-0.25 0.62-0.25 0.02 0 0.06 0.01 0.04 0 0.14 0.01v0.59q-0.06-0.01-0.1-0.01-0.05 0-0.1 0-0.45 0-0.69 0.27-0.25 0.28-0.25 0.63v1.94h-0.6z"/>
	<path class="s1" d="m35.65 6.61h0.61v3.35h-0.61zm0-1.27h0.61v0.64h-0.61z"/>
	<path class="s1" d="m37.22 5.66h0.6v0.94h0.57v0.46h-0.57v2.19q0 0.18 0.13 0.24 0.07 0.03 0.23 0.03 0.04 0 0.09 0 0.05 0 0.12-0.01v0.45q-0.1 0.02-0.22 0.04-0.11 0.01-0.24 0.01-0.41 0-0.56-0.2-0.15-0.2-0.15-0.53v-2.22h-0.49v-0.46h0.49z"/>
	<path class="s1" d="m39.04 5.66h0.61v0.94h0.57v0.46h-0.57v2.19q0 0.18 0.13 0.24 0.07 0.03 0.23 0.03 0.04 0 0.09 0 0.05 0 0.12-0.01v0.45q-0.11 0.02-0.22 0.04-0.11 0.01-0.24 0.01-0.42 0-0.57-0.2-0.15-0.2-0.15-0.53v-2.22h-0.48v-0.46h0.48z"/>
	<path class="s1" d="m42.23 6.52q0.38 0 0.74 0.17 0.36 0.17 0.54 0.43 0.18 0.26 0.24 0.6 0.05 0.23 0.05 0.74h-2.61q0.02 0.51 0.26 0.82 0.24 0.31 0.74 0.31 0.47 0 0.75-0.3 0.16-0.16 0.23-0.39h0.58q-0.02 0.19-0.15 0.42-0.13 0.22-0.29 0.37-0.28 0.25-0.68 0.34-0.22 0.05-0.49 0.05-0.66 0-1.13-0.46-0.46-0.46-0.46-1.28 0-0.81 0.47-1.31 0.46-0.51 1.21-0.51zm0.96 1.49q-0.04-0.37-0.17-0.59-0.25-0.41-0.82-0.41-0.41 0-0.69 0.29-0.28 0.28-0.3 0.71z"/>
	<path class="s1" d="m44.47 6.6h0.57v0.47q0.26-0.29 0.54-0.42 0.28-0.13 0.63-0.13 0.76 0 1.02 0.5 0.15 0.27 0.15 0.78v2.16h-0.61v-2.12q0-0.31-0.1-0.5-0.16-0.31-0.58-0.31-0.21 0-0.34 0.04-0.25 0.07-0.44 0.28-0.15 0.16-0.19 0.34-0.05 0.18-0.05 0.51v1.76h-0.6z"/>
	<path class="s1" d="m49.98 5.33h0.58v1.68q0.2-0.25 0.47-0.37 0.27-0.13 0.59-0.13 0.67 0 1.08 0.43 0.42 0.43 0.42 1.27 0 0.8-0.41 1.33-0.41 0.52-1.14 0.52-0.4 0-0.68-0.18-0.17-0.11-0.36-0.35v0.43h-0.55zm1.56 4.23q0.48 0 0.72-0.37 0.24-0.36 0.24-0.96 0-0.53-0.24-0.87-0.24-0.35-0.71-0.35-0.41 0-0.72 0.28-0.3 0.29-0.3 0.94 0 0.48 0.12 0.77 0.24 0.56 0.89 0.56z"/>
	<path class="s1" d="m55.97 6.6h0.67q-0.13 0.32-0.57 1.47-0.32 0.87-0.54 1.41-0.52 1.29-0.73 1.57-0.22 0.28-0.73 0.28-0.13 0-0.2-0.01-0.07-0.01-0.17-0.03v-0.51q0.16 0.04 0.23 0.05 0.07 0 0.12 0 0.17 0 0.25-0.05 0.08-0.05 0.13-0.12 0.01-0.03 0.12-0.26 0.1-0.23 0.15-0.35l-1.32-3.45h0.68l0.95 2.73z"/>
	<path class="s1" d="m58.92 5.33h0.59v1.72q0.22-0.25 0.39-0.36 0.29-0.17 0.72-0.17 0.77 0 1.05 0.51 0.15 0.28 0.15 0.77v2.16h-0.62v-2.12q0-0.37-0.1-0.54-0.16-0.28-0.61-0.28-0.37 0-0.67 0.24-0.31 0.24-0.31 0.91v1.79h-0.59z"/>
	<path class="s1" d="m63.24 6.6v2.23q0 0.25 0.08 0.42 0.16 0.3 0.6 0.3 0.62 0 0.85-0.53 0.12-0.28 0.12-0.77v-1.65h0.6v3.36h-0.56v-0.5q-0.11 0.19-0.29 0.32-0.34 0.27-0.83 0.27-0.76 0-1.03-0.48-0.15-0.26-0.15-0.69v-2.28z"/>
	<path class="s1" d="m66.36 6.6h0.59v0.47q0.22-0.24 0.39-0.36 0.3-0.19 0.67-0.19 0.43 0 0.69 0.2 0.14 0.11 0.26 0.33 0.2-0.27 0.47-0.4 0.27-0.13 0.61-0.13 0.72 0 0.98 0.49 0.14 0.26 0.14 0.71v2.24h-0.63v-2.34q0-0.33-0.18-0.46-0.17-0.12-0.43-0.12-0.35 0-0.61 0.22-0.25 0.22-0.25 0.74v1.96h-0.61v-2.2q0-0.34-0.09-0.49-0.13-0.24-0.5-0.24-0.34 0-0.62 0.25-0.28 0.25-0.28 0.89v1.79h-0.6z"/>
	<path class="s1" d="m73.88 7.92q0.2-0.02 0.27-0.16 0.04-0.08 0.04-0.22 0-0.29-0.22-0.42-0.21-0.13-0.62-0.13-0.47 0-0.66 0.24-0.11 0.13-0.15 0.39h-0.56q0.02-0.62 0.43-0.86 0.41-0.24 0.96-0.24 0.62 0 1.02 0.22 0.39 0.23 0.39 0.7v1.94q0 0.09 0.03 0.14 0.04 0.05 0.17 0.05 0.03 0 0.08 0 0.06-0.01 0.11-0.02v0.42q-0.14 0.04-0.21 0.05-0.08 0.01-0.2 0.01-0.31 0-0.45-0.21-0.07-0.11-0.1-0.31-0.19 0.23-0.53 0.39-0.34 0.17-0.75 0.17-0.5 0-0.82-0.28-0.31-0.29-0.31-0.71 0-0.47 0.31-0.73 0.31-0.26 0.81-0.32zm-1.45 1.15q0 0.24 0.19 0.38 0.19 0.14 0.45 0.14 0.32 0 0.61-0.14 0.5-0.22 0.5-0.75v-0.45q-0.11 0.07-0.28 0.11-0.17 0.04-0.34 0.06l-0.36 0.05q-0.33 0.04-0.49 0.12-0.28 0.15-0.28 0.48z"/>
	<path class="s1" d="m75.69 6.6h0.57v0.47q0.25-0.29 0.54-0.42 0.28-0.13 0.62-0.13 0.76 0 1.03 0.5 0.15 0.27 0.15 0.78v2.16h-0.61v-2.12q0-0.31-0.1-0.5-0.16-0.31-0.58-0.31-0.21 0-0.35 0.04-0.24 0.07-0.43 0.28-0.15 0.16-0.2 0.34-0.04 0.18-0.04 0.51v1.76h-0.6z"/>
	<path fill-rule="evenodd" class="s1" d="m62.69 21.39l3.11-8.72h2.05l3.08 8.72h-1.97l-0.56-1.79h-3.2l-0.61 1.79zm4.12-6.73l-1.12 3.43h2.2z"/>
	<path fill-rule="evenodd" class="s1" d="m52.13 14.8q1.27 0 1.98 0.91 0.72 0.92 0.72 2.37 0 1.5-0.71 2.49-0.7 0.99-1.97 0.99-0.8 0-1.28-0.32-0.29-0.19-0.63-0.66v0.81h-1.65v-8.71h1.68v3.1q0.32-0.45 0.7-0.69 0.46-0.29 1.16-0.29zm-0.43 5.37q0.65 0 1.01-0.53 0.36-0.52 0.36-1.38 0-0.69-0.18-1.14-0.34-0.85-1.24-0.85-0.91 0-1.26 0.84-0.17 0.44-0.17 1.14 0 0.83 0.36 1.38 0.37 0.54 1.12 0.54z"/>
	<path class="s1" d="m44.69 20.11q-0.1-0.1-0.1-0.5v-3.41h1.04v-1.2h-1.04v-1.8h-1.67v1.8h-0.89v1.2h0.89v3.97q0 0.6 0.29 0.89 0.43 0.46 1.63 0.42l0.79-0.03v-1.26q-0.08 0-0.17 0.01h-0.16q-0.51 0-0.61-0.09z"/>
	<path fill-rule="evenodd" class="s1" d="m41.96 18.18q0 1.42-0.81 2.43-0.82 1-2.48 1-1.66 0-2.47-1-0.82-1.01-0.82-2.43 0-1.4 0.82-2.42 0.81-1.03 2.47-1.03 1.66 0 2.48 1.03 0.81 1.02 0.81 2.42zm-3.29 2.02q0.73 0 1.13-0.53 0.4-0.52 0.4-1.49 0-0.97-0.4-1.49-0.4-0.53-1.13-0.53-0.74 0-1.14 0.53-0.4 0.52-0.4 1.49 0 0.97 0.4 1.49 0.4 0.53 1.14 0.53z"/>
	<path class="s1" d="m32.44 14.79q1 0 1.63 0.52 0.64 0.52 0.64 1.74v4.34h-1.73v-3.92q0-0.51-0.13-0.78-0.25-0.5-0.95-0.5-0.85 0-1.17 0.73-0.17 0.38-0.17 0.98v3.49h-1.67v-6.44h1.62v0.94q0.32-0.5 0.61-0.71 0.52-0.39 1.32-0.39z"/>
	<path class="s1" d="m56.03 22.64l-0.21-0.01v1.35q0.27 0.01 0.41 0.01 0.13 0.01 0.36 0.01 1.11 0 1.48-0.44 0.38-0.44 1.01-2.28l2.21-6.34h-1.79l-1.33 4.76-1.4-4.76h-1.87l2.36 6.73q0.02 0.08-0.11 0.39-0.12 0.32-0.27 0.42-0.15 0.11-0.38 0.14-0.22 0.03-0.47 0.02z"/>
	<path class="s1" d="m72.48 19.91v-5.76h-1.07v-1.48h3.83v1.48h-0.95v5.76h0.95v1.48h-3.83v-1.48z"/>
</svg>